<svg width="265" height="27" viewBox="0 0 265 27" fill="none" xmlns="http://www.w3.org/2000/svg">
<path d="M38.184 16.4004V5.20039H39.528V16.4004H38.184ZM48.6971 16.5924C48.0358 16.5924 47.4865 16.4804 47.0491 16.2564C46.6118 16.0324 46.2865 15.7337 46.0731 15.3604C45.8598 14.9871 45.7531 14.5817 45.7531 14.1444C45.7531 13.3337 46.0625 12.7097 46.6811 12.2724C47.2998 11.8351 48.1425 11.6164 49.2091 11.6164H51.3531V11.5204C51.3531 10.8271 51.1718 10.3044 50.8091 9.95239C50.4465 9.58972 49.9611 9.40839 49.3531 9.40839C48.8305 9.40839 48.3771 9.54172 47.9931 9.80839C47.6198 10.0644 47.3851 10.4431 47.2891 10.9444H45.9131C45.9665 10.3684 46.1585 9.88306 46.4891 9.48839C46.8305 9.09372 47.2518 8.79506 47.7531 8.59239C48.2545 8.37906 48.7878 8.27239 49.3531 8.27239C50.4625 8.27239 51.2945 8.57106 51.8491 9.16839C52.4145 9.75506 52.6971 10.5391 52.6971 11.5204V16.4004H51.4971L51.4171 14.9764C51.1931 15.4244 50.8625 15.8084 50.4251 16.1284C49.9985 16.4377 49.4225 16.5924 48.6971 16.5924ZM48.9051 15.4564C49.4171 15.4564 49.8545 15.3231 50.2171 15.0564C50.5905 14.7897 50.8731 14.4431 51.0651 14.0164C51.2571 13.5897 51.3531 13.1417 51.3531 12.6724V12.6564H49.3211C48.5318 12.6564 47.9718 12.7951 47.6411 13.0724C47.3211 13.3391 47.1611 13.6751 47.1611 14.0804C47.1611 14.4964 47.3105 14.8324 47.6091 15.0884C47.9185 15.3337 48.3505 15.4564 48.9051 15.4564ZM57.8494 13.9044C57.4014 13.9044 56.9907 13.8457 56.6174 13.7284L55.8174 14.4804C55.9347 14.5657 56.0787 14.6404 56.2494 14.7044C56.4307 14.7577 56.6867 14.8111 57.0174 14.8644C57.348 14.9071 57.812 14.9551 58.4094 15.0084C59.476 15.0831 60.2387 15.3284 60.6974 15.7444C61.156 16.1604 61.3854 16.7044 61.3854 17.3764C61.3854 17.8351 61.2574 18.2724 61.0014 18.6884C60.756 19.1044 60.372 19.4457 59.8494 19.7124C59.3374 19.9791 58.676 20.1124 57.8654 20.1124C57.1507 20.1124 56.516 20.0164 55.9614 19.8244C55.4067 19.6431 54.9747 19.3604 54.6654 18.9764C54.356 18.6031 54.2014 18.1284 54.2014 17.5524C54.2014 17.2537 54.2814 16.9284 54.4414 16.5764C54.6014 16.2351 54.9 15.9097 55.3374 15.6004C55.1027 15.5044 54.9 15.4031 54.7294 15.2964C54.5694 15.1791 54.42 15.0511 54.2814 14.9124V14.5444L55.6414 13.2004C55.012 12.6671 54.6974 11.9631 54.6974 11.0884C54.6974 10.5657 54.82 10.0911 55.0654 9.66439C55.3107 9.23772 55.668 8.90172 56.1374 8.65639C56.6067 8.40039 57.1774 8.27239 57.8494 8.27239C58.308 8.27239 58.724 8.33639 59.0974 8.46439H62.0254V9.47239L60.5374 9.53639C60.8467 9.98439 61.0014 10.5017 61.0014 11.0884C61.0014 11.6111 60.8734 12.0857 60.6174 12.5124C60.372 12.9391 60.0147 13.2804 59.5454 13.5364C59.0867 13.7817 58.5214 13.9044 57.8494 13.9044ZM57.8494 12.8004C58.4147 12.8004 58.8627 12.6564 59.1934 12.3684C59.5347 12.0697 59.7054 11.6431 59.7054 11.0884C59.7054 10.5444 59.5347 10.1284 59.1934 9.84039C58.8627 9.54172 58.4147 9.39239 57.8494 9.39239C57.2734 9.39239 56.8147 9.54172 56.4734 9.84039C56.1427 10.1284 55.9774 10.5444 55.9774 11.0884C55.9774 11.6431 56.1427 12.0697 56.4734 12.3684C56.8147 12.6564 57.2734 12.8004 57.8494 12.8004ZM55.5134 17.4244C55.5134 17.9577 55.7374 18.3524 56.1854 18.6084C56.6334 18.8751 57.1934 19.0084 57.8654 19.0084C58.5267 19.0084 59.0547 18.8644 59.4494 18.5764C59.8547 18.2884 60.0574 17.9044 60.0574 17.4244C60.0574 17.0831 59.9187 16.7844 59.6414 16.5284C59.364 16.2831 58.852 16.1391 58.1054 16.0964C57.5187 16.0537 57.012 16.0004 56.5854 15.9364C56.148 16.1711 55.86 16.4217 55.7214 16.6884C55.5827 16.9657 55.5134 17.2111 55.5134 17.4244ZM63.5415 16.4004V8.46439H64.7575L64.8695 9.98439C65.1148 9.46172 65.4882 9.04572 65.9895 8.73639C66.4908 8.42706 67.1095 8.27239 67.8455 8.27239V9.68039H67.4775C67.0082 9.68039 66.5762 9.76572 66.1815 9.93639C65.7868 10.0964 65.4722 10.3737 65.2375 10.7684C65.0028 11.1631 64.8855 11.7071 64.8855 12.4004V16.4004H63.5415ZM72.6251 16.5924C71.8678 16.5924 71.1958 16.4217 70.6091 16.0804C70.0225 15.7284 69.5585 15.2431 69.2171 14.6244C68.8865 14.0057 68.7211 13.2751 68.7211 12.4324C68.7211 11.6004 68.8865 10.8751 69.2171 10.2564C69.5478 9.62706 70.0065 9.14172 70.5931 8.80039C71.1905 8.44839 71.8785 8.27239 72.6571 8.27239C73.4251 8.27239 74.0865 8.44839 74.6411 8.80039C75.2065 9.14172 75.6385 9.59506 75.9371 10.1604C76.2358 10.7257 76.3851 11.3337 76.3851 11.9844C76.3851 12.1017 76.3798 12.2191 76.3691 12.3364C76.3691 12.4537 76.3691 12.5871 76.3691 12.7364H70.0491C70.0811 13.3444 70.2198 13.8511 70.4651 14.2564C70.7211 14.6511 71.0358 14.9497 71.4091 15.1524C71.7931 15.3551 72.1985 15.4564 72.6251 15.4564C73.1798 15.4564 73.6438 15.3284 74.0171 15.0724C74.3905 14.8164 74.6625 14.4697 74.8331 14.0324H76.1611C75.9478 14.7684 75.5371 15.3817 74.9291 15.8724C74.3318 16.3524 73.5638 16.5924 72.6251 16.5924ZM72.6251 9.40839C71.9851 9.40839 71.4145 9.60572 70.9131 10.0004C70.4225 10.3844 70.1398 10.9497 70.0651 11.6964H75.0571C75.0251 10.9817 74.7798 10.4217 74.3211 10.0164C73.8625 9.61106 73.2971 9.40839 72.6251 9.40839ZM81.7345 16.5924C80.9772 16.5924 80.3052 16.4217 79.7185 16.0804C79.1318 15.7284 78.6678 15.2431 78.3265 14.6244C77.9958 14.0057 77.8305 13.2751 77.8305 12.4324C77.8305 11.6004 77.9958 10.8751 78.3265 10.2564C78.6572 9.62706 79.1158 9.14172 79.7025 8.80039C80.2998 8.44839 80.9878 8.27239 81.7665 8.27239C82.5345 8.27239 83.1958 8.44839 83.7505 8.80039C84.3158 9.14172 84.7478 9.59506 85.0465 10.1604C85.3452 10.7257 85.4945 11.3337 85.4945 11.9844C85.4945 12.1017 85.4892 12.2191 85.4785 12.3364C85.4785 12.4537 85.4785 12.5871 85.4785 12.7364H79.1585C79.1905 13.3444 79.3292 13.8511 79.5745 14.2564C79.8305 14.6511 80.1452 14.9497 80.5185 15.1524C80.9025 15.3551 81.3078 15.4564 81.7345 15.4564C82.2892 15.4564 82.7532 15.3284 83.1265 15.0724C83.4998 14.8164 83.7718 14.4697 83.9425 14.0324H85.2705C85.0572 14.7684 84.6465 15.3817 84.0385 15.8724C83.4412 16.3524 82.6732 16.5924 81.7345 16.5924ZM81.7345 9.40839C81.0945 9.40839 80.5238 9.60572 80.0225 10.0004C79.5318 10.3844 79.2492 10.9497 79.1745 11.6964H84.1665C84.1345 10.9817 83.8892 10.4217 83.4305 10.0164C82.9718 9.61106 82.4065 9.40839 81.7345 9.40839ZM94.6463 16.4004C93.9209 16.4004 93.3503 16.2244 92.9343 15.8724C92.5183 15.5204 92.3103 14.8857 92.3103 13.9684V9.60039H90.9342V8.46439H92.3103L92.4863 6.56039H93.6543V8.46439H95.9903V9.60039H93.6543V13.9684C93.6543 14.4697 93.7556 14.8111 93.9583 14.9924C94.1609 15.1631 94.5183 15.2484 95.0303 15.2484H95.8623V16.4004H94.6463ZM101.095 16.5924C100.348 16.5924 99.6763 16.4217 99.079 16.0804C98.4817 15.7391 98.007 15.2591 97.655 14.6404C97.3137 14.0111 97.143 13.2751 97.143 12.4324C97.143 11.5897 97.319 10.8591 97.671 10.2404C98.023 9.61106 98.4977 9.12572 99.095 8.78439C99.703 8.44306 100.38 8.27239 101.127 8.27239C101.874 8.27239 102.546 8.44306 103.143 8.78439C103.74 9.12572 104.21 9.61106 104.551 10.2404C104.903 10.8591 105.079 11.5897 105.079 12.4324C105.079 13.2751 104.903 14.0111 104.551 14.6404C104.199 15.2591 103.719 15.7391 103.111 16.0804C102.514 16.4217 101.842 16.5924 101.095 16.5924ZM101.095 15.4404C101.554 15.4404 101.98 15.3284 102.375 15.1044C102.77 14.8804 103.09 14.5444 103.335 14.0964C103.58 13.6484 103.703 13.0937 103.703 12.4324C103.703 11.7711 103.58 11.2164 103.335 10.7684C103.1 10.3204 102.786 9.98439 102.391 9.76039C101.996 9.53639 101.575 9.42439 101.127 9.42439C100.668 9.42439 100.242 9.53639 99.847 9.76039C99.4523 9.98439 99.1323 10.3204 98.887 10.7684C98.6417 11.2164 98.519 11.7711 98.519 12.4324C98.519 13.0937 98.6417 13.6484 98.887 14.0964C99.1323 14.5444 99.447 14.8804 99.831 15.1044C100.226 15.3284 100.647 15.4404 101.095 15.4404ZM114.318 16.4004C113.593 16.4004 113.022 16.2244 112.606 15.8724C112.19 15.5204 111.982 14.8857 111.982 13.9684V9.60039H110.606V8.46439H111.982L112.158 6.56039H113.326V8.46439H115.662V9.60039H113.326V13.9684C113.326 14.4697 113.427 14.8111 113.63 14.9924C113.833 15.1631 114.19 15.2484 114.702 15.2484H115.534V16.4004H114.318ZM117.37 16.4004V4.88039H118.714V9.82439C118.98 9.33372 119.359 8.95506 119.85 8.68839C120.34 8.41106 120.874 8.27239 121.45 8.27239C122.367 8.27239 123.103 8.56039 123.658 9.13639C124.212 9.70172 124.49 10.5764 124.49 11.7604V16.4004H123.162V11.9044C123.162 10.2511 122.495 9.42439 121.162 9.42439C120.468 9.42439 119.887 9.67506 119.418 10.1764C118.948 10.6671 118.714 11.3711 118.714 12.2884V16.4004H117.37ZM130.094 16.5924C129.337 16.5924 128.665 16.4217 128.078 16.0804C127.491 15.7284 127.027 15.2431 126.686 14.6244C126.355 14.0057 126.19 13.2751 126.19 12.4324C126.19 11.6004 126.355 10.8751 126.686 10.2564C127.017 9.62706 127.475 9.14172 128.062 8.80039C128.659 8.44839 129.347 8.27239 130.126 8.27239C130.894 8.27239 131.555 8.44839 132.11 8.80039C132.675 9.14172 133.107 9.59506 133.406 10.1604C133.705 10.7257 133.854 11.3337 133.854 11.9844C133.854 12.1017 133.849 12.2191 133.838 12.3364C133.838 12.4537 133.838 12.5871 133.838 12.7364H127.518C127.55 13.3444 127.689 13.8511 127.934 14.2564C128.19 14.6511 128.505 14.9497 128.878 15.1524C129.262 15.3551 129.667 15.4564 130.094 15.4564C130.649 15.4564 131.113 15.3284 131.486 15.0724C131.859 14.8164 132.131 14.4697 132.302 14.0324H133.63C133.417 14.7684 133.006 15.3817 132.398 15.8724C131.801 16.3524 131.033 16.5924 130.094 16.5924ZM130.094 9.40839C129.454 9.40839 128.883 9.60572 128.382 10.0004C127.891 10.3844 127.609 10.9497 127.534 11.6964H132.526C132.494 10.9817 132.249 10.4217 131.79 10.0164C131.331 9.61106 130.766 9.40839 130.094 9.40839ZM142.574 16.4004V6.30439H139.23V5.20039H147.262V6.30439H143.918V16.4004H142.574ZM150.953 16.5924C150.196 16.5924 149.524 16.4217 148.937 16.0804C148.351 15.7284 147.887 15.2431 147.545 14.6244C147.215 14.0057 147.049 13.2751 147.049 12.4324C147.049 11.6004 147.215 10.8751 147.545 10.2564C147.876 9.62706 148.335 9.14172 148.921 8.80039C149.519 8.44839 150.207 8.27239 150.985 8.27239C151.753 8.27239 152.415 8.44839 152.969 8.80039C153.535 9.14172 153.967 9.59506 154.265 10.1604C154.564 10.7257 154.713 11.3337 154.713 11.9844C154.713 12.1017 154.708 12.2191 154.697 12.3364C154.697 12.4537 154.697 12.5871 154.697 12.7364H148.377C148.409 13.3444 148.548 13.8511 148.793 14.2564C149.049 14.6511 149.364 14.9497 149.737 15.1524C150.121 15.3551 150.527 15.4564 150.953 15.4564C151.508 15.4564 151.972 15.3284 152.345 15.0724C152.719 14.8164 152.991 14.4697 153.161 14.0324H154.489C154.276 14.7684 153.865 15.3817 153.257 15.8724C152.66 16.3524 151.892 16.5924 150.953 16.5924ZM150.953 9.40839C150.313 9.40839 149.743 9.60572 149.241 10.0004C148.751 10.3844 148.468 10.9497 148.393 11.6964H153.385C153.353 10.9817 153.108 10.4217 152.649 10.0164C152.191 9.61106 151.625 9.40839 150.953 9.40839ZM156.495 16.4004V8.46439H157.711L157.823 9.98439C158.068 9.46172 158.441 9.04572 158.943 8.73639C159.444 8.42706 160.063 8.27239 160.799 8.27239V9.68039H160.431C159.961 9.68039 159.529 9.76572 159.135 9.93639C158.74 10.0964 158.425 10.3737 158.191 10.7684C157.956 11.1631 157.839 11.7071 157.839 12.4004V16.4004H156.495ZM162.307 16.4004V8.46439H163.523L163.619 9.61639C163.875 9.18972 164.216 8.85906 164.643 8.62439C165.07 8.38972 165.55 8.27239 166.083 8.27239C166.712 8.27239 167.251 8.40039 167.699 8.65639C168.158 8.91239 168.51 9.30172 168.755 9.82439C169.032 9.34439 169.411 8.96572 169.891 8.68839C170.382 8.41106 170.91 8.27239 171.475 8.27239C172.424 8.27239 173.182 8.56039 173.747 9.13639C174.312 9.70172 174.595 10.5764 174.595 11.7604V16.4004H173.267V11.9044C173.267 11.0831 173.102 10.4644 172.771 10.0484C172.44 9.63239 171.966 9.42439 171.347 9.42439C170.707 9.42439 170.174 9.67506 169.747 10.1764C169.331 10.6671 169.123 11.3711 169.123 12.2884V16.4004H167.779V11.9044C167.779 11.0831 167.614 10.4644 167.283 10.0484C166.952 9.63239 166.478 9.42439 165.859 9.42439C165.23 9.42439 164.702 9.67506 164.275 10.1764C163.859 10.6671 163.651 11.3711 163.651 12.2884V16.4004H162.307ZM179.66 16.5924C178.71 16.5924 177.921 16.3524 177.292 15.8724C176.662 15.3924 176.294 14.7417 176.188 13.9204H177.564C177.649 14.3364 177.868 14.6991 178.22 15.0084C178.582 15.3071 179.068 15.4564 179.676 15.4564C180.241 15.4564 180.657 15.3391 180.924 15.1044C181.19 14.8591 181.324 14.5711 181.324 14.2404C181.324 13.7604 181.148 13.4404 180.796 13.2804C180.454 13.1204 179.969 12.9764 179.34 12.8484C178.913 12.7631 178.486 12.6404 178.06 12.4804C177.633 12.3204 177.276 12.0964 176.988 11.8084C176.7 11.5097 176.556 11.1204 176.556 10.6404C176.556 9.94706 176.812 9.38172 177.324 8.94439C177.846 8.49639 178.55 8.27239 179.436 8.27239C180.278 8.27239 180.966 8.48572 181.5 8.91239C182.044 9.32839 182.358 9.92572 182.444 10.7044H181.116C181.062 10.2991 180.886 9.98439 180.588 9.76039C180.3 9.52572 179.91 9.40839 179.42 9.40839C178.94 9.40839 178.566 9.50972 178.3 9.71239C178.044 9.91506 177.916 10.1817 177.916 10.5124C177.916 10.8324 178.081 11.0831 178.412 11.2644C178.753 11.4457 179.212 11.6004 179.788 11.7284C180.278 11.8351 180.742 11.9684 181.18 12.1284C181.628 12.2777 181.99 12.5071 182.268 12.8164C182.556 13.1151 182.7 13.5524 182.7 14.1284C182.71 14.8431 182.438 15.4351 181.884 15.9044C181.34 16.3631 180.598 16.5924 179.66 16.5924ZM192.47 16.5924C191.723 16.5924 191.051 16.4217 190.454 16.0804C189.857 15.7391 189.382 15.2591 189.03 14.6404C188.689 14.0111 188.518 13.2751 188.518 12.4324C188.518 11.5897 188.694 10.8591 189.046 10.2404C189.398 9.61106 189.873 9.12572 190.47 8.78439C191.078 8.44306 191.755 8.27239 192.502 8.27239C193.249 8.27239 193.921 8.44306 194.518 8.78439C195.115 9.12572 195.585 9.61106 195.926 10.2404C196.278 10.8591 196.454 11.5897 196.454 12.4324C196.454 13.2751 196.278 14.0111 195.926 14.6404C195.574 15.2591 195.094 15.7391 194.486 16.0804C193.889 16.4217 193.217 16.5924 192.47 16.5924ZM192.47 15.4404C192.929 15.4404 193.355 15.3284 193.75 15.1044C194.145 14.8804 194.465 14.5444 194.71 14.0964C194.955 13.6484 195.078 13.0937 195.078 12.4324C195.078 11.7711 194.955 11.2164 194.71 10.7684C194.475 10.3204 194.161 9.98439 193.766 9.76039C193.371 9.53639 192.95 9.42439 192.502 9.42439C192.043 9.42439 191.617 9.53639 191.222 9.76039C190.827 9.98439 190.507 10.3204 190.262 10.7684C190.017 11.2164 189.894 11.7711 189.894 12.4324C189.894 13.0937 190.017 13.6484 190.262 14.0964C190.507 14.5444 190.822 14.8804 191.206 15.1044C191.601 15.3284 192.022 15.4404 192.47 15.4404ZM198.755 16.4004V9.60039H197.555V8.46439H198.755V7.08839C198.755 6.32039 198.947 5.76039 199.331 5.40839C199.715 5.05639 200.275 4.88039 201.011 4.88039H201.811V6.03239H201.219C200.813 6.03239 200.525 6.11772 200.355 6.28839C200.184 6.44839 200.099 6.72572 200.099 7.12039V8.46439H202.051V9.60039H200.099V16.4004H198.755ZM211.533 16.5924C210.712 16.5924 209.997 16.4431 209.389 16.1444C208.781 15.8457 208.312 15.4297 207.981 14.8964C207.651 14.3631 207.485 13.7444 207.485 13.0404H208.893C208.893 13.4777 208.995 13.8831 209.197 14.2564C209.4 14.6191 209.693 14.9124 210.077 15.1364C210.472 15.3497 210.957 15.4564 211.533 15.4564C212.291 15.4564 212.877 15.2751 213.293 14.9124C213.709 14.5497 213.917 14.0964 213.917 13.5524C213.917 13.1044 213.821 12.7471 213.629 12.4804C213.437 12.2031 213.176 11.9791 212.845 11.8084C212.525 11.6377 212.152 11.4884 211.725 11.3604C211.309 11.2324 210.872 11.0884 210.413 10.9284C209.549 10.6297 208.909 10.2617 208.493 9.82439C208.077 9.37639 207.869 8.79506 207.869 8.08039C207.859 7.48306 207.997 6.95506 208.285 6.49639C208.573 6.02706 208.979 5.66439 209.501 5.40839C210.035 5.14172 210.664 5.00839 211.389 5.00839C212.104 5.00839 212.723 5.14172 213.245 5.40839C213.779 5.67506 214.189 6.04306 214.477 6.51239C214.776 6.98172 214.931 7.51506 214.941 8.11239H213.533C213.533 7.80306 213.453 7.49906 213.293 7.20039C213.133 6.89106 212.888 6.64039 212.557 6.44839C212.237 6.25639 211.832 6.16039 211.341 6.16039C210.733 6.14972 210.232 6.30439 209.837 6.62439C209.453 6.94439 209.261 7.38706 209.261 7.95239C209.261 8.43239 209.395 8.80039 209.661 9.05639C209.939 9.31239 210.323 9.52572 210.813 9.69639C211.304 9.85639 211.869 10.0431 212.509 10.2564C213.043 10.4484 213.523 10.6724 213.949 10.9284C214.376 11.1844 214.707 11.5151 214.941 11.9204C215.187 12.3257 215.309 12.8431 215.309 13.4724C215.309 14.0057 215.171 14.5124 214.893 14.9924C214.616 15.4617 214.195 15.8457 213.629 16.1444C213.075 16.4431 212.376 16.5924 211.533 16.5924ZM220.703 16.5924C219.946 16.5924 219.274 16.4217 218.687 16.0804C218.101 15.7284 217.637 15.2431 217.295 14.6244C216.965 14.0057 216.799 13.2751 216.799 12.4324C216.799 11.6004 216.965 10.8751 217.295 10.2564C217.626 9.62706 218.085 9.14172 218.671 8.80039C219.269 8.44839 219.957 8.27239 220.735 8.27239C221.503 8.27239 222.165 8.44839 222.719 8.80039C223.285 9.14172 223.717 9.59506 224.015 10.1604C224.314 10.7257 224.463 11.3337 224.463 11.9844C224.463 12.1017 224.458 12.2191 224.447 12.3364C224.447 12.4537 224.447 12.5871 224.447 12.7364H218.127C218.159 13.3444 218.298 13.8511 218.543 14.2564C218.799 14.6511 219.114 14.9497 219.487 15.1524C219.871 15.3551 220.277 15.4564 220.703 15.4564C221.258 15.4564 221.722 15.3284 222.095 15.0724C222.469 14.8164 222.741 14.4697 222.911 14.0324H224.239C224.026 14.7684 223.615 15.3817 223.007 15.8724C222.41 16.3524 221.642 16.5924 220.703 16.5924ZM220.703 9.40839C220.063 9.40839 219.493 9.60572 218.991 10.0004C218.501 10.3844 218.218 10.9497 218.143 11.6964H223.135C223.103 10.9817 222.858 10.4217 222.399 10.0164C221.941 9.61106 221.375 9.40839 220.703 9.40839ZM226.245 16.4004V8.46439H227.461L227.573 9.98439C227.818 9.46172 228.191 9.04572 228.693 8.73639C229.194 8.42706 229.813 8.27239 230.549 8.27239V9.68039H230.181C229.711 9.68039 229.279 9.76572 228.885 9.93639C228.49 10.0964 228.175 10.3737 227.941 10.7684C227.706 11.1631 227.589 11.7071 227.589 12.4004V16.4004H226.245ZM234.345 16.4004L231.337 8.46439H232.745L235.129 15.1044L237.529 8.46439H238.905L235.897 16.4004H234.345ZM241.217 6.70439C240.95 6.70439 240.726 6.61906 240.545 6.44839C240.374 6.26706 240.289 6.04306 240.289 5.77639C240.289 5.52039 240.374 5.30706 240.545 5.13639C240.726 4.96572 240.95 4.88039 241.217 4.88039C241.473 4.88039 241.692 4.96572 241.873 5.13639C242.054 5.30706 242.145 5.52039 242.145 5.77639C242.145 6.04306 242.054 6.26706 241.873 6.44839C241.692 6.61906 241.473 6.70439 241.217 6.70439ZM240.545 16.4004V8.46439H241.889V16.4004H240.545ZM247.877 16.5924C247.12 16.5924 246.437 16.4217 245.829 16.0804C245.232 15.7284 244.757 15.2431 244.405 14.6244C244.064 13.9951 243.893 13.2644 243.893 12.4324C243.893 11.6004 244.064 10.8751 244.405 10.2564C244.757 9.62706 245.232 9.14172 245.829 8.80039C246.437 8.44839 247.12 8.27239 247.877 8.27239C248.816 8.27239 249.605 8.51772 250.245 9.00839C250.896 9.49906 251.306 10.1551 251.477 10.9764H250.101C249.994 10.4857 249.733 10.1071 249.317 9.84039C248.901 9.56306 248.416 9.42439 247.861 9.42439C247.413 9.42439 246.992 9.53639 246.597 9.76039C246.202 9.98439 245.882 10.3204 245.637 10.7684C245.392 11.2164 245.269 11.7711 245.269 12.4324C245.269 13.0937 245.392 13.6484 245.637 14.0964C245.882 14.5444 246.202 14.8857 246.597 15.1204C246.992 15.3444 247.413 15.4564 247.861 15.4564C248.416 15.4564 248.901 15.3231 249.317 15.0564C249.733 14.7791 249.994 14.3897 250.101 13.8884H251.477C251.317 14.6884 250.912 15.3391 250.261 15.8404C249.61 16.3417 248.816 16.5924 247.877 16.5924ZM256.922 16.5924C256.165 16.5924 255.493 16.4217 254.906 16.0804C254.319 15.7284 253.855 15.2431 253.514 14.6244C253.183 14.0057 253.018 13.2751 253.018 12.4324C253.018 11.6004 253.183 10.8751 253.514 10.2564C253.845 9.62706 254.303 9.14172 254.89 8.80039C255.487 8.44839 256.175 8.27239 256.954 8.27239C257.722 8.27239 258.383 8.44839 258.938 8.80039C259.503 9.14172 259.935 9.59506 260.234 10.1604C260.533 10.7257 260.682 11.3337 260.682 11.9844C260.682 12.1017 260.677 12.2191 260.666 12.3364C260.666 12.4537 260.666 12.5871 260.666 12.7364H254.346C254.378 13.3444 254.517 13.8511 254.762 14.2564C255.018 14.6511 255.333 14.9497 255.706 15.1524C256.09 15.3551 256.495 15.4564 256.922 15.4564C257.477 15.4564 257.941 15.3284 258.314 15.0724C258.687 14.8164 258.959 14.4697 259.13 14.0324H260.458C260.245 14.7684 259.834 15.3817 259.226 15.8724C258.629 16.3524 257.861 16.5924 256.922 16.5924ZM256.922 9.40839C256.282 9.40839 255.711 9.60572 255.21 10.0004C254.719 10.3844 254.437 10.9497 254.362 11.6964H259.354C259.322 10.9817 259.077 10.4217 258.618 10.0164C258.159 9.61106 257.594 9.40839 256.922 9.40839ZM262.927 16.4804C262.661 16.4804 262.437 16.3951 262.255 16.2244C262.085 16.0431 261.999 15.8244 261.999 15.5684C261.999 15.3124 262.085 15.0991 262.255 14.9284C262.437 14.7471 262.661 14.6564 262.927 14.6564C263.183 14.6564 263.397 14.7471 263.567 14.9284C263.749 15.0991 263.839 15.3124 263.839 15.5684C263.839 15.8244 263.749 16.0431 263.567 16.2244C263.397 16.3951 263.183 16.4804 262.927 16.4804Z" fill="#151439" fill-opacity="0.4"/>
<rect width="24" height="24" rx="6" fill="#25DAC5"/>
<path d="M7.19999 12.5996L10.3765 15.5996L16.8 9.59961" stroke="#1E0E62" stroke-width="2" stroke-linecap="round" stroke-linejoin="round"/>
</svg>
